Motion_sv07_l
version=1
nRows=9
nColumns=43
inDegrees=yes
endheader
time	pelvis_tilt	pelvis_list	pelvis_rotation	pelvis_tx	pelvis_ty	pelvis_tz	hip_flexion_r	hip_adduction_r	hip_rotation_r	knee_angle_r	ankle_angle_r	subtalar_angle_r	mtp_angle_r	hip_flexion_l	hip_adduction_l	hip_rotation_l	knee_angle_l	ankle_angle_l	subtalar_angle_l	mtp_angle_l	lumbar_extension	lumbar_bending	lumbar_rotation	neck_flexion	neck_lateral_bending	neck_rotation	arm_flex_r	arm_add_r	arm_rot_r	elbow_flex_r	pro_sup_r	wrist_flex_r	wrist_dev_r	hand_finger_flex_r	arm_flex_l	arm_add_l	arm_rot_l	elbow_flex_l	pro_sup_l	wrist_flex_l	wrist_dev_l	hand_finger_flex_l
      0.48000000	    -22.71725032	     14.36492203	     92.23507701	      0.04273192	      1.39753447	      1.25437219	     84.50774222	     -3.00231186	     -9.38907005	   -134.18278666	     17.38310509	     -7.09651998	      7.52261942	     82.96949114	    -12.44187621	      8.29979634	   -125.00704437	     12.12441277	     11.73349656	    -15.20006049	    -71.71246329	      5.34766924	     -6.90639033	     18.80093433	     -7.24403587	     -3.91951197	     25.19743096	    -20.46002742	     10.80223913	     60.92289039	    172.52524771	    -11.56928436	     -2.86251549	     53.49393224	    114.73076492	    -19.19007486	     62.07691411	     69.16636126	    138.58380787	    -32.91897259	    -16.59201380	      3.41394206
      0.48250000	    -22.57704636	     14.55085889	     92.01461302	      0.04236647	      1.39717492	      1.25094750	     84.72039679	     -3.01945314	     -9.07614150	   -133.19503808	     17.51699404	     -6.11765074	      8.19714620	     82.63556275	    -12.64400834	      8.44596452	   -125.35807230	     12.17507214	     11.37551096	    -15.08296307	    -71.67839923	      5.36742628	     -6.63141357	     18.59158559	     -7.46531855	     -4.01264915	     24.80307669	    -20.57366313	     10.63715367	     60.94144551	    172.75138812	    -11.13918461	     -3.11177978	     53.31651158	    114.31099892	    -19.09260233	     61.47320446	     69.29893239	    138.30811460	    -32.45008950	    -16.57412784	      3.46195794
      0.48500000	    -22.51331001	     14.74071012	     91.95671169	      0.04214100	      1.39669986	      1.24752970	     84.91660305	     -3.18811048	     -8.83319959	   -132.22459950	     17.38552250	     -5.89532854	      8.31157757	     82.27690382	    -12.76086393	      8.59281254	   -125.64379962	     12.22502003	     11.29133874	    -15.05312528	    -71.64899705	      5.45512933	     -6.54653591	     18.39398654	     -7.47553710	     -3.96233864	     24.42113766	    -20.48608303	     10.38818838	     60.81385792	    172.77729934	    -11.01913312	     -3.12802966	     53.27874183	    114.12523206	    -19.20123398	     61.27962934	     69.51369325	    138.22146360	    -32.44656288	    -16.57300401	      3.43950937
      0.48750000	    -22.33874296	     14.91584359	     91.70568748	      0.04174681	      1.39615856	      1.24387073	     85.07748695	     -3.23133876	     -8.52490507	   -131.24504815	     17.50638668	     -4.71300319	      9.48761439	     81.94061877	    -13.07330264	      8.78203244	   -126.05599827	     12.42670294	     11.10142958	    -14.86042030	    -71.54959658	      5.48530212	     -6.20592588	     18.10778504	     -7.78358760	     -4.17564182	     23.94872917	    -20.54959395	     10.04439739	     60.83079535	    173.37048277	    -10.24000076	     -3.49915980	     52.88987568	    113.47369630	    -19.08076781	     60.38996178	     69.72233220	    138.02830698	    -31.66419871	    -16.64097371	      3.43018253
      0.49000000	    -22.28173229	     15.14231276	     91.63625465	      0.04132681	      1.39576002	      1.24036578	     85.21297059	     -3.43109748	     -8.23883238	   -130.28101456	     17.12363851	     -4.52699461	      9.66124277	     81.48324172	    -13.14431761	      8.95656311	   -126.38591318	     12.60819199	     11.02673841	    -14.79775794	    -71.53700678	      5.58519922	     -6.09529784	     17.93880445	     -7.95066679	     -4.02852254	     23.54291464	    -20.53812603	      9.83131896	     60.74961055	    173.44368685	    -10.08125433	     -3.51634589	     52.78896709	    113.16476194	    -19.11568317	     60.06092908	     69.91784342	    137.91159820	    -31.71069246	    -16.54427741	      3.33603973
      0.49250000	    -22.19684714	     15.32039024	     91.52089562	      0.04098053	      1.39529452	      1.23693427	     85.33112123	     -3.58999808	     -7.99373211	   -129.25531188	     16.91323896	     -4.26167180	      9.87243091	     81.04487297	    -13.27449211	      9.14696353	   -126.68083525	     12.84978347	     10.93733705	    -14.72553438	    -71.47162441	      5.66327855	     -5.95497391	     17.71371207	     -8.11650395	     -4.02109359	     23.15762687	    -20.52792521	      9.63759280	     60.65811068	    173.57327779	     -9.86542344	     -3.60669053	     52.69844310	    112.81362808	    -19.15624246	     59.67994147	     70.12591360	    137.79400050	    -31.69942498	    -16.42936067	      3.26515936
      0.49500000	    -22.08192968	     15.50909970	     91.38670908	      0.04049511	      1.39482774	      1.23333811	     85.41010900	     -3.75922761	     -7.72200019	   -128.26876416	     16.68831832	     -3.94500928	     10.16732344	     80.61416763	    -13.43999194	      9.37043963	   -127.02846224	     13.13198677	     10.84723991	    -14.63400583	    -71.39581599	      5.77142560	     -5.74786374	     17.49395934	     -8.38096751	     -4.06367761	     22.72890904	    -20.56974430	      9.42851565	     60.59366741	    173.79384224	     -9.54535794	     -3.75837756	     52.57891934	    112.37817861	    -19.18839025	     59.20390328	     70.35656424	    137.70289360	    -31.60726716	    -16.30015151	      3.19615264
      0.49750000	    -22.02991058	     15.60571312	     91.31524301	      0.03992484	      1.39434854	      1.23005465	     85.55170628	     -3.94890503	     -7.40951438	   -127.21343766	     16.61441326	     -3.90365873	     10.23113637	     80.26779435	    -13.49397244	      9.57285374	   -127.28233574	     13.18950552	     10.80154888	    -14.61084487	    -71.28229466	      5.86775967	     -5.67139996	     17.35836689	     -8.39789063	     -4.06813572	     22.37459498	    -20.62604362	      9.36335036	     60.52458827	    173.85346174	     -9.44353822	     -3.79556054	     52.54941828	    112.25437579	    -19.27850058	     59.07448826	     70.53770462	    137.69030658	    -31.60777252	    -16.29770327	      3.17375050
      0.50000000	    -21.91286534	     15.85592928	     91.20414383	      0.03943441	      1.39371826	      1.22632620	     85.54627548	     -4.19038489	     -7.22455363	   -126.25170602	     16.22625025	     -3.70204620	     10.45016503	     79.76868601	    -13.65148336	      9.81078394	   -127.69451392	     13.54052033	     10.61674645	    -14.51639361	    -71.22004774	      6.00582605	     -5.46486583	     17.13621221	     -8.77134363	     -4.10932455	     21.86743877	    -20.66555068	      9.05643548	     60.53588144	    174.02929362	     -9.08927324	     -3.96786038	     52.45029332	    111.68833255	    -19.34098844	     58.47086995	     70.85058651	    137.58661291	    -31.56707811	    -16.12040940	      3.10849019
